<svg xmlns="http://www.w3.org/2000/svg">
    <symbol id='theme' viewBox="0 0 24 24" fill="none" xmlns="http://www.w3.org/2000/svg">
        <path d="M12 15.25C13.7949 15.25 15.25 13.7949 15.25 12C15.25 10.2051 13.7949 8.75 12 8.75C10.2051 8.75 8.75 10.2051 8.75 12C8.75 13.7949 10.2051 15.25 12 15.25Z" stroke="currentColor" stroke-width="1.5" stroke-linecap="round" stroke-linejoin="round" />
        <path d="M12 2.75V4.25" stroke="currentColor" stroke-width="1.5" stroke-linecap="round" stroke-linejoin="round" />
        <path d="M17.25 6.75L16.0659 7.93416" stroke="currentColor" stroke-width="1.5" stroke-linecap="round" stroke-linejoin="round" />
        <path d="M21.25 12H19.75" stroke="currentColor" stroke-width="1.5" stroke-linecap="round" stroke-linejoin="round" />
        <path d="M17.25 17.25L16.0659 16.0659" stroke="currentColor" stroke-width="1.5" stroke-linecap="round" stroke-linejoin="round" />
        <path d="M12 19.75V21.25" stroke="currentColor" stroke-width="1.5" stroke-linecap="round" stroke-linejoin="round" />
        <path d="M7.93411 16.0659L6.74997 17.25" stroke="currentColor" stroke-width="1.5" stroke-linecap="round" stroke-linejoin="round" />
        <path d="M4.25 12H2.75" stroke="currentColor" stroke-width="1.5" stroke-linecap="round" stroke-linejoin="round" />
        <path d="M7.93405 7.9342L6.74991 6.75" stroke="currentColor" stroke-width="1.5" stroke-linecap="round" stroke-linejoin="round" />
    </symbol>
    <symbol id='double-arrow'>
        <svg xmlns="http://www.w3.org/2000/svg" viewBox="0 0 20 20" fill="currentColor">
            <path d="M8 5a1 1 0 100 2h5.586l-1.293 1.293a1 1 0 001.414 1.414l3-3a1 1 0 000-1.414l-3-3a1 1 0 10-1.414 1.414L13.586 5H8zM12 15a1 1 0 100-2H6.414l1.293-1.293a1 1 0 10-1.414-1.414l-3 3a1 1 0 000 1.414l3 3a1 1 0 001.414-1.414L6.414 15H12z" />
        </svg>
    </symbol>
    <symbol id='document'>
        <svg style="enable-background:new 0 0 512 512;" version="1.1" viewBox="0 0 512 512" xml:space="preserve" xmlns="http://www.w3.org/2000/svg" xmlns:xlink="http://www.w3.org/1999/xlink">
            <path d="M441.412,140.235v338.781c0,18.219-14.778,32.983-32.983,32.983H103.572  c-18.219,0-32.983-14.764-32.983-32.983V32.983C70.588,14.764,85.352,0,103.572,0h197.605L441.412,140.235z" style="fill:#518EF8;" />
            <g>
                <rect height="21.071" style="fill:#FFFFFF;" width="189.626" x="161.18" y="257.054" />
                <rect height="21.071" style="fill:#FFFFFF;" width="189.626" x="161.18" y="304.112" />
                <rect height="21.071" style="fill:#FFFFFF;" width="189.626" x="161.18" y="351.171" />
                <rect height="21.071" style="fill:#FFFFFF;" width="134.855" x="161.18" y="398.23" />
            </g>
            <polygon points="320.31,137.188 441.412,187.079 441.412,140.235 372.751,119.962 " style="fill:#3A5BBC;" />
            <path d="M441.412,140.235H334.16c-18.22,0-32.983-14.764-32.983-32.983V0L441.412,140.235z" style="fill:#ACD1FC;" />
            <g />
            <g />
            <g />
            <g />
            <g />
            <g />
            <g />
            <g />
            <g />
            <g />
            <g />
            <g />
            <g />
            <g />
            <g />
        </svg>
    </symbol>
    <symbol id='tick' viewBox="0 0 24 24" fill="none" xmlns="http://www.w3.org/2000/svg">
        <rect width="24" height="24" rx="6" fill="currentColor" />
        <path d="M6 13L9 16L17 8" stroke="white" stroke-width="2" stroke-linecap="round" stroke-linejoin="round" />
    </symbol>
    <symbol id='close' viewBox="0 0 23 24" fill="none" xmlns="http://www.w3.org/2000/svg">
        <rect width="23" height="24" rx="6" fill="currentColor" />
        <path d="M7.66667 16L15.3333 8" stroke="white" stroke-width="2" stroke-linecap="round" stroke-linejoin="round" />
        <path d="M7.66666 8L15.3333 16" stroke="white" stroke-width="2" stroke-linecap="round" stroke-linejoin="round" />
    </symbol>
    <symbol id='quoutes' viewBox="0 0 34 28" fill="none" xmlns="http://www.w3.org/2000/svg">
        <path d="M13.48 1.23132C9.25883 0.558382 6.12353 1.35368 4.07412 3.61721C2.02471 5.88073 1 9.21485 1 13.6196V27H15V13.6196H7.05647C6.72 11.4172 7.02588 9.62779 7.97412 8.25132C8.95294 6.87485 10.5435 6.27838 12.7459 6.46191L13.48 1.23132Z" fill="#CBD5E1" fill-opacity="0.1" stroke="#CBD5E1" stroke-width="2" stroke-linejoin="round" />
        <path d="M31.48 1.23132C27.2588 0.558382 24.1235 1.35368 22.0741 3.61721C20.0247 5.88073 19 9.21485 19 13.6196V27H33V13.6196H25.0565C24.72 11.4172 25.0259 9.62779 25.9741 8.25132C26.9529 6.87485 28.5435 6.27838 30.7459 6.46191L31.48 1.23132Z" fill="#CBD5E1" fill-opacity="0.1" stroke="#CBD5E1" stroke-width="2" stroke-linejoin="round" />
    </symbol>
    <symbol id='play' viewBox="0 0 12 14" fill="none" xmlns="http://www.w3.org/2000/svg">
        <path d="M1 1L11 7L1 13V1Z" fill="white" stroke="white" stroke-width="2" stroke-linejoin="round" />
    </symbol>
    <symbol id='linkedin' viewBox="0 0 20 20" fill="none" xmlns="http://www.w3.org/2000/svg">
        <path fill-rule="evenodd" clip-rule="evenodd" d="M18.3292 0C19.252 0 20 0.747522 20 1.67079V18.3292C20 19.252 19.2525 20 18.3292 20H1.67079C0.748038 20 0 19.2525 0 18.3292V1.67079C0 0.748038 0.747522 0 1.67079 0H18.3292ZM13.5187 7.5C12.0993 7.5 11.1281 8.12736 10.6957 8.85626L10.625 8.98583V7.625H7.91667V17.2083H10.8333V12.5662C10.8333 11.0104 11.4062 10.0208 12.7833 10.0208C13.7331 10.0208 14.1316 10.8607 14.1644 12.358L14.1667 12.5662V17.2083H17.0833V11.9154C17.0833 9.0575 16.3996 7.5 13.5187 7.5ZM5.83333 7.5H2.91667V17.0833H5.83333V7.5ZM4.375 2.5C3.33958 2.5 2.5 3.33958 2.5 4.375C2.5 5.41042 3.33958 6.25 4.375 6.25C5.41042 6.25 6.25 5.41042 6.25 4.375C6.25 3.33958 5.41042 2.5 4.375 2.5Z" fill="#94A3B8"/>
    </symbol>
    <symbol id='arrow-right'  xmlns="http://www.w3.org/2000/svg" fill="none" viewBox="0 0 24 24" stroke="currentColor" stroke-width="2">
        <path stroke-linecap="round" stroke-linejoin="round" d="M14 5l7 7m0 0l-7 7m7-7H3" />
    </symbol>
    <symbol id='up' fill="none" viewBox="0 0 24 24" stroke="currentColor" stroke-width="2">
        <path stroke-linecap="round" stroke-linejoin="round" d="M5 11l7-7 7 7M5 19l7-7 7 7" />
    </symbol>
</svg>